<mxfile host="app.diagrams.net" modified="2023-11-02T03:26:48.821Z" agent="Mozilla/5.0 (Windows NT 10.0; Win64; x64) AppleWebKit/537.36 (KHTML, like Gecko) Chrome/116.0.5845.833 YaBrowser/23.9.4.833 Yowser/2.5 Safari/537.36" etag="Cl_BdFYHuWI8vT-FMSig" version="22.0.8" type="github" pages="5">
  <diagram name="S" id="RaGAPnOn0WnEdb-jaaNc">
    <mxGraphModel dx="989" dy="546" grid="0" gridSize="10" guides="1" tooltips="1" connect="1" arrows="1" fold="1" page="0" pageScale="1" pageWidth="827" pageHeight="1169" math="0" shadow="0">
      <root>
        <mxCell id="0" />
        <mxCell id="1" parent="0" />
        <mxCell id="atiPBA8xLcMAGWpfqntU-24" value="" style="rounded=0;whiteSpace=wrap;html=1;fillColor=none;" parent="1" vertex="1">
          <mxGeometry x="561" y="231" width="377" height="268" as="geometry" />
        </mxCell>
        <mxCell id="atiPBA8xLcMAGWpfqntU-1" value="Class" style="swimlane;fontStyle=0;childLayout=stackLayout;horizontal=1;startSize=26;fillColor=none;horizontalStack=0;resizeParent=1;resizeParentMax=0;resizeLast=0;collapsible=1;marginBottom=0;whiteSpace=wrap;html=1;" parent="1" vertex="1">
          <mxGeometry x="372" y="328" width="140" height="130" as="geometry" />
        </mxCell>
        <mxCell id="atiPBA8xLcMAGWpfqntU-2" value="+ field1" style="text;strokeColor=none;fillColor=none;align=left;verticalAlign=top;spacingLeft=4;spacingRight=4;overflow=hidden;rotatable=0;points=[[0,0.5],[1,0.5]];portConstraint=eastwest;whiteSpace=wrap;html=1;" parent="atiPBA8xLcMAGWpfqntU-1" vertex="1">
          <mxGeometry y="26" width="140" height="26" as="geometry" />
        </mxCell>
        <mxCell id="atiPBA8xLcMAGWpfqntU-3" value="+ field2" style="text;strokeColor=none;fillColor=none;align=left;verticalAlign=top;spacingLeft=4;spacingRight=4;overflow=hidden;rotatable=0;points=[[0,0.5],[1,0.5]];portConstraint=eastwest;whiteSpace=wrap;html=1;" parent="atiPBA8xLcMAGWpfqntU-1" vertex="1">
          <mxGeometry y="52" width="140" height="26" as="geometry" />
        </mxCell>
        <mxCell id="atiPBA8xLcMAGWpfqntU-4" value="+ getField1()" style="text;strokeColor=none;fillColor=none;align=left;verticalAlign=top;spacingLeft=4;spacingRight=4;overflow=hidden;rotatable=0;points=[[0,0.5],[1,0.5]];portConstraint=eastwest;whiteSpace=wrap;html=1;" parent="atiPBA8xLcMAGWpfqntU-1" vertex="1">
          <mxGeometry y="78" width="140" height="26" as="geometry" />
        </mxCell>
        <mxCell id="atiPBA8xLcMAGWpfqntU-5" value="+ getField2()" style="text;strokeColor=none;fillColor=none;align=left;verticalAlign=top;spacingLeft=4;spacingRight=4;overflow=hidden;rotatable=0;points=[[0,0.5],[1,0.5]];portConstraint=eastwest;whiteSpace=wrap;html=1;" parent="atiPBA8xLcMAGWpfqntU-1" vertex="1">
          <mxGeometry y="104" width="140" height="26" as="geometry" />
        </mxCell>
        <mxCell id="atiPBA8xLcMAGWpfqntU-6" value="Repository" style="swimlane;fontStyle=0;childLayout=stackLayout;horizontal=1;startSize=26;fillColor=none;horizontalStack=0;resizeParent=1;resizeParentMax=0;resizeLast=0;collapsible=1;marginBottom=0;whiteSpace=wrap;html=1;" parent="1" vertex="1">
          <mxGeometry x="596" y="276" width="140" height="104" as="geometry" />
        </mxCell>
        <mxCell id="atiPBA8xLcMAGWpfqntU-7" value="+ save(obj: Class)" style="text;strokeColor=none;fillColor=none;align=left;verticalAlign=top;spacingLeft=4;spacingRight=4;overflow=hidden;rotatable=0;points=[[0,0.5],[1,0.5]];portConstraint=eastwest;whiteSpace=wrap;html=1;" parent="atiPBA8xLcMAGWpfqntU-6" vertex="1">
          <mxGeometry y="26" width="140" height="26" as="geometry" />
        </mxCell>
        <mxCell id="atiPBA8xLcMAGWpfqntU-8" value="+ remove(obj: Class)" style="text;strokeColor=none;fillColor=none;align=left;verticalAlign=top;spacingLeft=4;spacingRight=4;overflow=hidden;rotatable=0;points=[[0,0.5],[1,0.5]];portConstraint=eastwest;whiteSpace=wrap;html=1;" parent="atiPBA8xLcMAGWpfqntU-6" vertex="1">
          <mxGeometry y="52" width="140" height="26" as="geometry" />
        </mxCell>
        <mxCell id="atiPBA8xLcMAGWpfqntU-9" value="+ get(obj: Class)" style="text;strokeColor=none;fillColor=none;align=left;verticalAlign=top;spacingLeft=4;spacingRight=4;overflow=hidden;rotatable=0;points=[[0,0.5],[1,0.5]];portConstraint=eastwest;whiteSpace=wrap;html=1;" parent="atiPBA8xLcMAGWpfqntU-6" vertex="1">
          <mxGeometry y="78" width="140" height="26" as="geometry" />
        </mxCell>
        <mxCell id="atiPBA8xLcMAGWpfqntU-11" value="HttpSender" style="swimlane;fontStyle=0;childLayout=stackLayout;horizontal=1;startSize=26;fillColor=none;horizontalStack=0;resizeParent=1;resizeParentMax=0;resizeLast=0;collapsible=1;marginBottom=0;whiteSpace=wrap;html=1;" parent="1" vertex="1">
          <mxGeometry x="596" y="396" width="140" height="78" as="geometry" />
        </mxCell>
        <mxCell id="atiPBA8xLcMAGWpfqntU-12" value="+ sendHttp(obj: Class)" style="text;strokeColor=none;fillColor=none;align=left;verticalAlign=top;spacingLeft=4;spacingRight=4;overflow=hidden;rotatable=0;points=[[0,0.5],[1,0.5]];portConstraint=eastwest;whiteSpace=wrap;html=1;" parent="atiPBA8xLcMAGWpfqntU-11" vertex="1">
          <mxGeometry y="26" width="140" height="26" as="geometry" />
        </mxCell>
        <mxCell id="atiPBA8xLcMAGWpfqntU-13" value="+ getHttp(id: number)" style="text;strokeColor=none;fillColor=none;align=left;verticalAlign=top;spacingLeft=4;spacingRight=4;overflow=hidden;rotatable=0;points=[[0,0.5],[1,0.5]];portConstraint=eastwest;whiteSpace=wrap;html=1;" parent="atiPBA8xLcMAGWpfqntU-11" vertex="1">
          <mxGeometry y="52" width="140" height="26" as="geometry" />
        </mxCell>
        <mxCell id="atiPBA8xLcMAGWpfqntU-15" value="Logger" style="swimlane;fontStyle=0;childLayout=stackLayout;horizontal=1;startSize=26;fillColor=none;horizontalStack=0;resizeParent=1;resizeParentMax=0;resizeLast=0;collapsible=1;marginBottom=0;whiteSpace=wrap;html=1;" parent="1" vertex="1">
          <mxGeometry x="753" y="276" width="147" height="78" as="geometry" />
        </mxCell>
        <mxCell id="atiPBA8xLcMAGWpfqntU-16" value="+ logToExcell(obj: Class)" style="text;strokeColor=none;fillColor=none;align=left;verticalAlign=top;spacingLeft=4;spacingRight=4;overflow=hidden;rotatable=0;points=[[0,0.5],[1,0.5]];portConstraint=eastwest;whiteSpace=wrap;html=1;" parent="atiPBA8xLcMAGWpfqntU-15" vertex="1">
          <mxGeometry y="26" width="147" height="26" as="geometry" />
        </mxCell>
        <mxCell id="atiPBA8xLcMAGWpfqntU-17" value="+ logToTxt(obj: Class)" style="text;strokeColor=none;fillColor=none;align=left;verticalAlign=top;spacingLeft=4;spacingRight=4;overflow=hidden;rotatable=0;points=[[0,0.5],[1,0.5]];portConstraint=eastwest;whiteSpace=wrap;html=1;" parent="atiPBA8xLcMAGWpfqntU-15" vertex="1">
          <mxGeometry y="52" width="147" height="26" as="geometry" />
        </mxCell>
        <mxCell id="atiPBA8xLcMAGWpfqntU-19" value="Printer" style="swimlane;fontStyle=0;childLayout=stackLayout;horizontal=1;startSize=26;fillColor=none;horizontalStack=0;resizeParent=1;resizeParentMax=0;resizeLast=0;collapsible=1;marginBottom=0;whiteSpace=wrap;html=1;" parent="1" vertex="1">
          <mxGeometry x="753" y="396" width="147" height="78" as="geometry" />
        </mxCell>
        <mxCell id="atiPBA8xLcMAGWpfqntU-20" value="+ printToPdf(obj: Class)" style="text;strokeColor=none;fillColor=none;align=left;verticalAlign=top;spacingLeft=4;spacingRight=4;overflow=hidden;rotatable=0;points=[[0,0.5],[1,0.5]];portConstraint=eastwest;whiteSpace=wrap;html=1;" parent="atiPBA8xLcMAGWpfqntU-19" vertex="1">
          <mxGeometry y="26" width="147" height="26" as="geometry" />
        </mxCell>
        <mxCell id="atiPBA8xLcMAGWpfqntU-21" value="+ printtoDoc(obj: Class)" style="text;strokeColor=none;fillColor=none;align=left;verticalAlign=top;spacingLeft=4;spacingRight=4;overflow=hidden;rotatable=0;points=[[0,0.5],[1,0.5]];portConstraint=eastwest;whiteSpace=wrap;html=1;" parent="atiPBA8xLcMAGWpfqntU-19" vertex="1">
          <mxGeometry y="52" width="147" height="26" as="geometry" />
        </mxCell>
        <mxCell id="atiPBA8xLcMAGWpfqntU-22" value="Модель данных" style="text;html=1;strokeColor=none;fillColor=#d5e8d4;align=center;verticalAlign=middle;whiteSpace=wrap;rounded=0;fontStyle=1" parent="1" vertex="1">
          <mxGeometry x="385" y="288" width="114" height="30" as="geometry" />
        </mxCell>
        <mxCell id="atiPBA8xLcMAGWpfqntU-23" value="Поведение" style="text;html=1;strokeColor=none;fillColor=#d5e8d4;align=center;verticalAlign=middle;whiteSpace=wrap;rounded=0;fontStyle=1;" parent="1" vertex="1">
          <mxGeometry x="693" y="236" width="104" height="30" as="geometry" />
        </mxCell>
        <mxCell id="l-H1c2rvrNElCM8ixuVU-1" value="Single responsibility principle (Принцип единственной ответственности)" style="text;html=1;align=center;verticalAlign=middle;whiteSpace=wrap;rounded=0;strokeColor=default;fontStyle=1" vertex="1" parent="1">
          <mxGeometry x="382" y="149" width="497" height="30" as="geometry" />
        </mxCell>
      </root>
    </mxGraphModel>
  </diagram>
  <diagram id="e9qUm5EdJtlHyq0vxCEI" name="O">
    <mxGraphModel dx="1195" dy="1059" grid="0" gridSize="10" guides="1" tooltips="1" connect="1" arrows="1" fold="1" page="0" pageScale="1" pageWidth="827" pageHeight="1169" math="0" shadow="0">
      <root>
        <mxCell id="0" />
        <mxCell id="1" parent="0" />
        <mxCell id="J7pSZ2yeslKGJ3qi9xGy-1" value="Class1" style="swimlane;fontStyle=0;childLayout=stackLayout;horizontal=1;startSize=26;fillColor=none;horizontalStack=0;resizeParent=1;resizeParentMax=0;resizeLast=0;collapsible=1;marginBottom=0;whiteSpace=wrap;html=1;" parent="1" vertex="1">
          <mxGeometry x="2079" y="63" width="140" height="78" as="geometry" />
        </mxCell>
        <mxCell id="J7pSZ2yeslKGJ3qi9xGy-2" value="+ get()" style="text;strokeColor=none;fillColor=none;align=left;verticalAlign=top;spacingLeft=4;spacingRight=4;overflow=hidden;rotatable=0;points=[[0,0.5],[1,0.5]];portConstraint=eastwest;whiteSpace=wrap;html=1;" parent="J7pSZ2yeslKGJ3qi9xGy-1" vertex="1">
          <mxGeometry y="26" width="140" height="26" as="geometry" />
        </mxCell>
        <mxCell id="J7pSZ2yeslKGJ3qi9xGy-3" value="+ post()" style="text;strokeColor=none;fillColor=none;align=left;verticalAlign=top;spacingLeft=4;spacingRight=4;overflow=hidden;rotatable=0;points=[[0,0.5],[1,0.5]];portConstraint=eastwest;whiteSpace=wrap;html=1;" parent="J7pSZ2yeslKGJ3qi9xGy-1" vertex="1">
          <mxGeometry y="52" width="140" height="26" as="geometry" />
        </mxCell>
        <mxCell id="J7pSZ2yeslKGJ3qi9xGy-6" value="Class2" style="swimlane;fontStyle=0;childLayout=stackLayout;horizontal=1;startSize=26;fillColor=none;horizontalStack=0;resizeParent=1;resizeParentMax=0;resizeLast=0;collapsible=1;marginBottom=0;whiteSpace=wrap;html=1;" parent="1" vertex="1">
          <mxGeometry x="2284" y="63" width="140" height="104" as="geometry" />
        </mxCell>
        <mxCell id="J7pSZ2yeslKGJ3qi9xGy-7" value="+ get()" style="text;strokeColor=none;fillColor=none;align=left;verticalAlign=top;spacingLeft=4;spacingRight=4;overflow=hidden;rotatable=0;points=[[0,0.5],[1,0.5]];portConstraint=eastwest;whiteSpace=wrap;html=1;" parent="J7pSZ2yeslKGJ3qi9xGy-6" vertex="1">
          <mxGeometry y="26" width="140" height="26" as="geometry" />
        </mxCell>
        <mxCell id="J7pSZ2yeslKGJ3qi9xGy-8" value="+ post()" style="text;strokeColor=none;fillColor=none;align=left;verticalAlign=top;spacingLeft=4;spacingRight=4;overflow=hidden;rotatable=0;points=[[0,0.5],[1,0.5]];portConstraint=eastwest;whiteSpace=wrap;html=1;" parent="J7pSZ2yeslKGJ3qi9xGy-6" vertex="1">
          <mxGeometry y="52" width="140" height="26" as="geometry" />
        </mxCell>
        <mxCell id="J7pSZ2yeslKGJ3qi9xGy-9" value="+ put()" style="text;strokeColor=none;fillColor=none;align=left;verticalAlign=top;spacingLeft=4;spacingRight=4;overflow=hidden;rotatable=0;points=[[0,0.5],[1,0.5]];portConstraint=eastwest;whiteSpace=wrap;html=1;" parent="J7pSZ2yeslKGJ3qi9xGy-6" vertex="1">
          <mxGeometry y="78" width="140" height="26" as="geometry" />
        </mxCell>
        <mxCell id="J7pSZ2yeslKGJ3qi9xGy-10" style="edgeStyle=orthogonalEdgeStyle;rounded=0;orthogonalLoop=1;jettySize=auto;html=1;entryX=1;entryY=0.5;entryDx=0;entryDy=0;" parent="1" source="J7pSZ2yeslKGJ3qi9xGy-7" target="J7pSZ2yeslKGJ3qi9xGy-2" edge="1">
          <mxGeometry relative="1" as="geometry" />
        </mxCell>
        <mxCell id="J7pSZ2yeslKGJ3qi9xGy-11" value="Class1.get()" style="text;html=1;strokeColor=none;fillColor=#fff2cc;align=center;verticalAlign=middle;whiteSpace=wrap;rounded=0;" parent="1" vertex="1">
          <mxGeometry x="2430" y="94" width="93" height="22" as="geometry" />
        </mxCell>
        <mxCell id="J7pSZ2yeslKGJ3qi9xGy-15" style="edgeStyle=orthogonalEdgeStyle;rounded=0;orthogonalLoop=1;jettySize=auto;html=1;entryX=0.5;entryY=0;entryDx=0;entryDy=0;" parent="1" source="J7pSZ2yeslKGJ3qi9xGy-12" target="J7pSZ2yeslKGJ3qi9xGy-1" edge="1">
          <mxGeometry relative="1" as="geometry" />
        </mxCell>
        <mxCell id="J7pSZ2yeslKGJ3qi9xGy-16" style="edgeStyle=orthogonalEdgeStyle;rounded=0;orthogonalLoop=1;jettySize=auto;html=1;entryX=0.5;entryY=0;entryDx=0;entryDy=0;" parent="1" source="J7pSZ2yeslKGJ3qi9xGy-12" target="J7pSZ2yeslKGJ3qi9xGy-6" edge="1">
          <mxGeometry relative="1" as="geometry" />
        </mxCell>
        <mxCell id="J7pSZ2yeslKGJ3qi9xGy-12" value="&lt;i&gt;Interface&lt;/i&gt;&lt;span style=&quot;white-space: pre;&quot;&gt;&#x9;&lt;/span&gt;" style="swimlane;fontStyle=0;childLayout=stackLayout;horizontal=1;startSize=26;fillColor=none;horizontalStack=0;resizeParent=1;resizeParentMax=0;resizeLast=0;collapsible=1;marginBottom=0;whiteSpace=wrap;html=1;" parent="1" vertex="1">
          <mxGeometry x="2181" y="-80" width="140" height="78" as="geometry" />
        </mxCell>
        <mxCell id="J7pSZ2yeslKGJ3qi9xGy-13" value="+ get()" style="text;strokeColor=none;fillColor=none;align=left;verticalAlign=top;spacingLeft=4;spacingRight=4;overflow=hidden;rotatable=0;points=[[0,0.5],[1,0.5]];portConstraint=eastwest;whiteSpace=wrap;html=1;" parent="J7pSZ2yeslKGJ3qi9xGy-12" vertex="1">
          <mxGeometry y="26" width="140" height="26" as="geometry" />
        </mxCell>
        <mxCell id="J7pSZ2yeslKGJ3qi9xGy-14" value="+ post()" style="text;strokeColor=none;fillColor=none;align=left;verticalAlign=top;spacingLeft=4;spacingRight=4;overflow=hidden;rotatable=0;points=[[0,0.5],[1,0.5]];portConstraint=eastwest;whiteSpace=wrap;html=1;" parent="J7pSZ2yeslKGJ3qi9xGy-12" vertex="1">
          <mxGeometry y="52" width="140" height="26" as="geometry" />
        </mxCell>
        <mxCell id="J7pSZ2yeslKGJ3qi9xGy-22" style="edgeStyle=orthogonalEdgeStyle;rounded=1;orthogonalLoop=1;jettySize=auto;html=1;entryX=0.5;entryY=0;entryDx=0;entryDy=0;endArrow=none;endFill=0;" parent="1" source="J7pSZ2yeslKGJ3qi9xGy-17" target="J7pSZ2yeslKGJ3qi9xGy-18" edge="1">
          <mxGeometry relative="1" as="geometry" />
        </mxCell>
        <mxCell id="J7pSZ2yeslKGJ3qi9xGy-17" value="" style="rounded=0;whiteSpace=wrap;html=1;" parent="1" vertex="1">
          <mxGeometry x="496" y="-106" width="120" height="60" as="geometry" />
        </mxCell>
        <mxCell id="J7pSZ2yeslKGJ3qi9xGy-27" style="edgeStyle=orthogonalEdgeStyle;shape=connector;rounded=1;orthogonalLoop=1;jettySize=auto;html=1;entryX=0;entryY=0.5;entryDx=0;entryDy=0;labelBackgroundColor=default;strokeColor=default;align=center;verticalAlign=middle;fontFamily=Helvetica;fontSize=11;fontColor=default;endArrow=none;endFill=0;" parent="1" source="J7pSZ2yeslKGJ3qi9xGy-18" target="J7pSZ2yeslKGJ3qi9xGy-20" edge="1">
          <mxGeometry relative="1" as="geometry" />
        </mxCell>
        <mxCell id="J7pSZ2yeslKGJ3qi9xGy-28" style="edgeStyle=orthogonalEdgeStyle;shape=connector;rounded=1;orthogonalLoop=1;jettySize=auto;html=1;entryX=1;entryY=0.5;entryDx=0;entryDy=0;labelBackgroundColor=default;strokeColor=default;align=center;verticalAlign=middle;fontFamily=Helvetica;fontSize=11;fontColor=default;endArrow=none;endFill=0;" parent="1" source="J7pSZ2yeslKGJ3qi9xGy-18" target="J7pSZ2yeslKGJ3qi9xGy-19" edge="1">
          <mxGeometry relative="1" as="geometry" />
        </mxCell>
        <mxCell id="J7pSZ2yeslKGJ3qi9xGy-18" value="" style="rounded=0;whiteSpace=wrap;html=1;" parent="1" vertex="1">
          <mxGeometry x="496" y="-20" width="120" height="60" as="geometry" />
        </mxCell>
        <mxCell id="J7pSZ2yeslKGJ3qi9xGy-19" value="" style="rounded=0;whiteSpace=wrap;html=1;" parent="1" vertex="1">
          <mxGeometry x="339" y="-20" width="120" height="60" as="geometry" />
        </mxCell>
        <mxCell id="J7pSZ2yeslKGJ3qi9xGy-29" style="edgeStyle=orthogonalEdgeStyle;shape=connector;rounded=1;orthogonalLoop=1;jettySize=auto;html=1;entryX=0;entryY=0.5;entryDx=0;entryDy=0;labelBackgroundColor=default;strokeColor=default;align=center;verticalAlign=middle;fontFamily=Helvetica;fontSize=11;fontColor=default;endArrow=none;endFill=0;" parent="1" source="J7pSZ2yeslKGJ3qi9xGy-20" target="J7pSZ2yeslKGJ3qi9xGy-21" edge="1">
          <mxGeometry relative="1" as="geometry" />
        </mxCell>
        <mxCell id="J7pSZ2yeslKGJ3qi9xGy-20" value="" style="rounded=0;whiteSpace=wrap;html=1;" parent="1" vertex="1">
          <mxGeometry x="652" y="-20" width="120" height="60" as="geometry" />
        </mxCell>
        <mxCell id="J7pSZ2yeslKGJ3qi9xGy-21" value="" style="rounded=0;whiteSpace=wrap;html=1;fillColor=#dae8fc;strokeColor=none;" parent="1" vertex="1">
          <mxGeometry x="809" y="-20" width="120" height="60" as="geometry" />
        </mxCell>
        <mxCell id="qI4Zz2_DL1dysWs-RNPs-1" value="Sort" style="swimlane;fontStyle=0;childLayout=stackLayout;horizontal=1;startSize=26;fillColor=none;horizontalStack=0;resizeParent=1;resizeParentMax=0;resizeLast=0;collapsible=1;marginBottom=0;whiteSpace=wrap;html=1;" parent="1" vertex="1">
          <mxGeometry x="469.5" y="126" width="173" height="52" as="geometry" />
        </mxCell>
        <mxCell id="qI4Zz2_DL1dysWs-RNPs-2" value="+ static sort(array: any[]): any[]" style="text;strokeColor=none;fillColor=none;align=left;verticalAlign=top;spacingLeft=4;spacingRight=4;overflow=hidden;rotatable=0;points=[[0,0.5],[1,0.5]];portConstraint=eastwest;whiteSpace=wrap;html=1;" parent="qI4Zz2_DL1dysWs-RNPs-1" vertex="1">
          <mxGeometry y="26" width="173" height="26" as="geometry" />
        </mxCell>
        <mxCell id="qI4Zz2_DL1dysWs-RNPs-4" value="BubbleSort" style="swimlane;fontStyle=0;childLayout=stackLayout;horizontal=1;startSize=26;fillColor=none;horizontalStack=0;resizeParent=1;resizeParentMax=0;resizeLast=0;collapsible=1;marginBottom=0;whiteSpace=wrap;html=1;" parent="1" vertex="1">
          <mxGeometry x="281" y="238" width="173" height="52" as="geometry" />
        </mxCell>
        <mxCell id="qI4Zz2_DL1dysWs-RNPs-5" value="+ static sort(array: any[]): any[]" style="text;strokeColor=none;fillColor=none;align=left;verticalAlign=top;spacingLeft=4;spacingRight=4;overflow=hidden;rotatable=0;points=[[0,0.5],[1,0.5]];portConstraint=eastwest;whiteSpace=wrap;html=1;" parent="qI4Zz2_DL1dysWs-RNPs-4" vertex="1">
          <mxGeometry y="26" width="173" height="26" as="geometry" />
        </mxCell>
        <mxCell id="qI4Zz2_DL1dysWs-RNPs-6" style="edgeStyle=orthogonalEdgeStyle;rounded=0;orthogonalLoop=1;jettySize=auto;html=1;entryX=0;entryY=0.5;entryDx=0;entryDy=0;endArrow=block;endFill=0;" parent="1" source="qI4Zz2_DL1dysWs-RNPs-4" target="qI4Zz2_DL1dysWs-RNPs-2" edge="1">
          <mxGeometry relative="1" as="geometry" />
        </mxCell>
        <mxCell id="qI4Zz2_DL1dysWs-RNPs-7" value="QuickSort" style="swimlane;fontStyle=0;childLayout=stackLayout;horizontal=1;startSize=26;fillColor=none;horizontalStack=0;resizeParent=1;resizeParentMax=0;resizeLast=0;collapsible=1;marginBottom=0;whiteSpace=wrap;html=1;" parent="1" vertex="1">
          <mxGeometry x="474" y="238" width="173" height="52" as="geometry" />
        </mxCell>
        <mxCell id="qI4Zz2_DL1dysWs-RNPs-8" value="+ static sort(array: any[]): any[]" style="text;strokeColor=none;fillColor=none;align=left;verticalAlign=top;spacingLeft=4;spacingRight=4;overflow=hidden;rotatable=0;points=[[0,0.5],[1,0.5]];portConstraint=eastwest;whiteSpace=wrap;html=1;" parent="qI4Zz2_DL1dysWs-RNPs-7" vertex="1">
          <mxGeometry y="26" width="173" height="26" as="geometry" />
        </mxCell>
        <mxCell id="qI4Zz2_DL1dysWs-RNPs-9" style="edgeStyle=orthogonalEdgeStyle;shape=connector;rounded=0;orthogonalLoop=1;jettySize=auto;html=1;entryX=0.529;entryY=1.027;entryDx=0;entryDy=0;entryPerimeter=0;labelBackgroundColor=default;strokeColor=default;align=center;verticalAlign=middle;fontFamily=Helvetica;fontSize=11;fontColor=default;endArrow=block;endFill=0;" parent="1" source="qI4Zz2_DL1dysWs-RNPs-7" target="qI4Zz2_DL1dysWs-RNPs-2" edge="1">
          <mxGeometry relative="1" as="geometry" />
        </mxCell>
        <mxCell id="qI4Zz2_DL1dysWs-RNPs-12" style="edgeStyle=orthogonalEdgeStyle;shape=connector;rounded=0;orthogonalLoop=1;jettySize=auto;html=1;entryX=1;entryY=0.5;entryDx=0;entryDy=0;labelBackgroundColor=default;strokeColor=default;align=center;verticalAlign=middle;fontFamily=Helvetica;fontSize=11;fontColor=default;endArrow=block;endFill=0;" parent="1" source="qI4Zz2_DL1dysWs-RNPs-10" target="qI4Zz2_DL1dysWs-RNPs-2" edge="1">
          <mxGeometry relative="1" as="geometry" />
        </mxCell>
        <mxCell id="qI4Zz2_DL1dysWs-RNPs-10" value="MergeSort" style="swimlane;fontStyle=0;childLayout=stackLayout;horizontal=1;startSize=26;fillColor=none;horizontalStack=0;resizeParent=1;resizeParentMax=0;resizeLast=0;collapsible=1;marginBottom=0;whiteSpace=wrap;html=1;" parent="1" vertex="1">
          <mxGeometry x="668" y="238" width="173" height="52" as="geometry" />
        </mxCell>
        <mxCell id="qI4Zz2_DL1dysWs-RNPs-11" value="+ static sort(array: any[]): any[]" style="text;strokeColor=none;fillColor=none;align=left;verticalAlign=top;spacingLeft=4;spacingRight=4;overflow=hidden;rotatable=0;points=[[0,0.5],[1,0.5]];portConstraint=eastwest;whiteSpace=wrap;html=1;" parent="qI4Zz2_DL1dysWs-RNPs-10" vertex="1">
          <mxGeometry y="26" width="173" height="26" as="geometry" />
        </mxCell>
        <mxCell id="qI4Zz2_DL1dysWs-RNPs-15" style="edgeStyle=orthogonalEdgeStyle;shape=connector;rounded=0;orthogonalLoop=1;jettySize=auto;html=1;entryX=1;entryY=0.25;entryDx=0;entryDy=0;labelBackgroundColor=default;strokeColor=default;align=center;verticalAlign=middle;fontFamily=Helvetica;fontSize=11;fontColor=default;endArrow=block;endFill=0;" parent="1" source="qI4Zz2_DL1dysWs-RNPs-13" target="qI4Zz2_DL1dysWs-RNPs-1" edge="1">
          <mxGeometry relative="1" as="geometry">
            <Array as="points">
              <mxPoint x="956" y="139" />
            </Array>
          </mxGeometry>
        </mxCell>
        <mxCell id="qI4Zz2_DL1dysWs-RNPs-13" value="SortClient" style="swimlane;fontStyle=0;childLayout=stackLayout;horizontal=1;startSize=26;fillColor=none;horizontalStack=0;resizeParent=1;resizeParentMax=0;resizeLast=0;collapsible=1;marginBottom=0;whiteSpace=wrap;html=1;" parent="1" vertex="1">
          <mxGeometry x="869" y="238" width="173" height="52" as="geometry" />
        </mxCell>
        <mxCell id="qI4Zz2_DL1dysWs-RNPs-14" value="+ static sort(array: any[]): any[]" style="text;strokeColor=none;fillColor=none;align=left;verticalAlign=top;spacingLeft=4;spacingRight=4;overflow=hidden;rotatable=0;points=[[0,0.5],[1,0.5]];portConstraint=eastwest;whiteSpace=wrap;html=1;" parent="qI4Zz2_DL1dysWs-RNPs-13" vertex="1">
          <mxGeometry y="26" width="173" height="26" as="geometry" />
        </mxCell>
        <mxCell id="qI4Zz2_DL1dysWs-RNPs-17" value="&lt;h1&gt;&lt;font style=&quot;font-size: 14px;&quot;&gt;SortClinet.sort&lt;/font&gt;&lt;/h1&gt;&lt;div style=&quot;font-family: &amp;quot;Droid Sans Mono&amp;quot;, &amp;quot;monospace&amp;quot;, monospace; line-height: 19px; font-size: 10px;&quot;&gt;&lt;div style=&quot;&quot;&gt;public static sort(array: any[]): any[] {&lt;/div&gt;&lt;div style=&quot;&quot;&gt;    &lt;span style=&quot;white-space: pre;&quot;&gt;&#x9;&lt;/span&gt;if (array.length &amp;lt; 10) {&lt;/div&gt;&lt;div style=&quot;&quot;&gt;      &lt;span style=&quot;white-space: pre;&quot;&gt;&#x9;&lt;/span&gt;&lt;span style=&quot;white-space: pre;&quot;&gt;&#x9;&lt;/span&gt;return BubbleSort.sort(array);&lt;/div&gt;&lt;div style=&quot;&quot;&gt;    &lt;span style=&quot;white-space: pre;&quot;&gt;&#x9;&lt;/span&gt;} else if (array.length &amp;lt; 1000 ) {&lt;/div&gt;&lt;div style=&quot;&quot;&gt;      &lt;span style=&quot;white-space: pre;&quot;&gt;&#x9;&lt;/span&gt;&lt;span style=&quot;white-space: pre;&quot;&gt;&#x9;&lt;/span&gt;return MergeSort.sort(array);&lt;/div&gt;&lt;div style=&quot;&quot;&gt;    &lt;span style=&quot;white-space: pre;&quot;&gt;&#x9;&lt;/span&gt;} else {&lt;/div&gt;&lt;div style=&quot;&quot;&gt;      &lt;span style=&quot;white-space: pre;&quot;&gt;&#x9;&lt;span style=&quot;white-space: pre;&quot;&gt;&#x9;&lt;/span&gt;&lt;/span&gt;return QuickSort.sort(array)&lt;/div&gt;&lt;div style=&quot;&quot;&gt;    &lt;span style=&quot;white-space: pre;&quot;&gt;&#x9;&lt;/span&gt;}&lt;/div&gt;&lt;div style=&quot;&quot;&gt;  }&lt;/div&gt;&lt;/div&gt;" style="text;html=1;strokeColor=#d6b656;fillColor=#fff2cc;spacing=5;spacingTop=-20;whiteSpace=wrap;overflow=hidden;rounded=0;fontSize=11;fontFamily=Helvetica;" parent="1" vertex="1">
          <mxGeometry x="871" y="302" width="292" height="221" as="geometry" />
        </mxCell>
        <mxCell id="qI4Zz2_DL1dysWs-RNPs-18" value="Person" style="swimlane;fontStyle=0;childLayout=stackLayout;horizontal=1;startSize=26;fillColor=none;horizontalStack=0;resizeParent=1;resizeParentMax=0;resizeLast=0;collapsible=1;marginBottom=0;whiteSpace=wrap;html=1;" parent="1" vertex="1">
          <mxGeometry x="1744" y="235" width="173" height="78" as="geometry" />
        </mxCell>
        <mxCell id="qI4Zz2_DL1dysWs-RNPs-19" value="+ fullname: string" style="text;strokeColor=none;fillColor=none;align=left;verticalAlign=top;spacingLeft=4;spacingRight=4;overflow=hidden;rotatable=0;points=[[0,0.5],[1,0.5]];portConstraint=eastwest;whiteSpace=wrap;html=1;" parent="qI4Zz2_DL1dysWs-RNPs-18" vertex="1">
          <mxGeometry y="26" width="173" height="26" as="geometry" />
        </mxCell>
        <mxCell id="qI4Zz2_DL1dysWs-RNPs-21" value="+ constructor(fullname: string)" style="text;strokeColor=default;fillColor=none;align=left;verticalAlign=top;spacingLeft=4;spacingRight=4;overflow=hidden;rotatable=0;points=[[0,0.5],[1,0.5]];portConstraint=eastwest;whiteSpace=wrap;html=1;" parent="qI4Zz2_DL1dysWs-RNPs-18" vertex="1">
          <mxGeometry y="52" width="173" height="26" as="geometry" />
        </mxCell>
        <mxCell id="qI4Zz2_DL1dysWs-RNPs-22" value="PersonList" style="swimlane;fontStyle=0;childLayout=stackLayout;horizontal=1;startSize=26;fillColor=none;horizontalStack=0;resizeParent=1;resizeParentMax=0;resizeLast=0;collapsible=1;marginBottom=0;whiteSpace=wrap;html=1;" parent="1" vertex="1">
          <mxGeometry x="1467" y="238" width="187" height="131" as="geometry" />
        </mxCell>
        <mxCell id="qI4Zz2_DL1dysWs-RNPs-23" value="+ persons:&amp;nbsp;Person[]" style="text;strokeColor=none;fillColor=none;align=left;verticalAlign=top;spacingLeft=4;spacingRight=4;overflow=hidden;rotatable=0;points=[[0,0.5],[1,0.5]];portConstraint=eastwest;whiteSpace=wrap;html=1;" parent="qI4Zz2_DL1dysWs-RNPs-22" vertex="1">
          <mxGeometry y="26" width="187" height="26" as="geometry" />
        </mxCell>
        <mxCell id="qI4Zz2_DL1dysWs-RNPs-24" value="+ constructor(persons: Person[])" style="text;strokeColor=none;fillColor=none;align=left;verticalAlign=top;spacingLeft=4;spacingRight=4;overflow=hidden;rotatable=0;points=[[0,0.5],[1,0.5]];portConstraint=eastwest;whiteSpace=wrap;html=1;" parent="qI4Zz2_DL1dysWs-RNPs-22" vertex="1">
          <mxGeometry y="52" width="187" height="26" as="geometry" />
        </mxCell>
        <mxCell id="qI4Zz2_DL1dysWs-RNPs-27" value="+ sort() {&lt;br&gt;&lt;span style=&quot;white-space: pre;&quot;&gt;&#x9;&lt;/span&gt;SortClient.sort(this.persons)&lt;br&gt;}" style="text;strokeColor=none;fillColor=none;align=left;verticalAlign=top;spacingLeft=4;spacingRight=4;overflow=hidden;rotatable=0;points=[[0,0.5],[1,0.5]];portConstraint=eastwest;whiteSpace=wrap;html=1;" parent="qI4Zz2_DL1dysWs-RNPs-22" vertex="1">
          <mxGeometry y="78" width="187" height="53" as="geometry" />
        </mxCell>
        <mxCell id="qI4Zz2_DL1dysWs-RNPs-26" style="edgeStyle=orthogonalEdgeStyle;shape=connector;rounded=0;orthogonalLoop=1;jettySize=auto;html=1;entryX=-0.002;entryY=0.622;entryDx=0;entryDy=0;labelBackgroundColor=default;strokeColor=default;align=center;verticalAlign=middle;fontFamily=Helvetica;fontSize=11;fontColor=default;endArrow=diamondThin;endFill=0;entryPerimeter=0;" parent="1" source="qI4Zz2_DL1dysWs-RNPs-23" target="qI4Zz2_DL1dysWs-RNPs-19" edge="1">
          <mxGeometry relative="1" as="geometry" />
        </mxCell>
        <mxCell id="qI4Zz2_DL1dysWs-RNPs-28" style="edgeStyle=orthogonalEdgeStyle;shape=connector;rounded=0;orthogonalLoop=1;jettySize=auto;html=1;entryX=1;entryY=0.25;entryDx=0;entryDy=0;labelBackgroundColor=default;strokeColor=default;align=center;verticalAlign=middle;fontFamily=Helvetica;fontSize=11;fontColor=default;endArrow=block;endFill=1;" parent="1" source="qI4Zz2_DL1dysWs-RNPs-27" target="qI4Zz2_DL1dysWs-RNPs-13" edge="1">
          <mxGeometry relative="1" as="geometry" />
        </mxCell>
        <mxCell id="qI4Zz2_DL1dysWs-RNPs-33" style="edgeStyle=orthogonalEdgeStyle;shape=connector;rounded=0;orthogonalLoop=1;jettySize=auto;html=1;entryX=1;entryY=0.25;entryDx=0;entryDy=0;labelBackgroundColor=default;strokeColor=default;align=center;verticalAlign=middle;fontFamily=Helvetica;fontSize=11;fontColor=default;endArrow=block;endFill=0;" parent="1" source="qI4Zz2_DL1dysWs-RNPs-29" target="qI4Zz2_DL1dysWs-RNPs-13" edge="1">
          <mxGeometry relative="1" as="geometry" />
        </mxCell>
        <mxCell id="qI4Zz2_DL1dysWs-RNPs-29" value="MusciList" style="swimlane;fontStyle=0;childLayout=stackLayout;horizontal=1;startSize=26;fillColor=none;horizontalStack=0;resizeParent=1;resizeParentMax=0;resizeLast=0;collapsible=1;marginBottom=0;whiteSpace=wrap;html=1;" parent="1" vertex="1">
          <mxGeometry x="1467" y="399" width="187" height="131" as="geometry" />
        </mxCell>
        <mxCell id="qI4Zz2_DL1dysWs-RNPs-30" value="+ musics: Music[]" style="text;strokeColor=none;fillColor=none;align=left;verticalAlign=top;spacingLeft=4;spacingRight=4;overflow=hidden;rotatable=0;points=[[0,0.5],[1,0.5]];portConstraint=eastwest;whiteSpace=wrap;html=1;" parent="qI4Zz2_DL1dysWs-RNPs-29" vertex="1">
          <mxGeometry y="26" width="187" height="26" as="geometry" />
        </mxCell>
        <mxCell id="qI4Zz2_DL1dysWs-RNPs-31" value="+ constructor(musics: Music[])" style="text;strokeColor=none;fillColor=none;align=left;verticalAlign=top;spacingLeft=4;spacingRight=4;overflow=hidden;rotatable=0;points=[[0,0.5],[1,0.5]];portConstraint=eastwest;whiteSpace=wrap;html=1;" parent="qI4Zz2_DL1dysWs-RNPs-29" vertex="1">
          <mxGeometry y="52" width="187" height="26" as="geometry" />
        </mxCell>
        <mxCell id="qI4Zz2_DL1dysWs-RNPs-32" value="+ sort() {&lt;br&gt;&lt;span style=&quot;&quot;&gt;&lt;span style=&quot;white-space: pre;&quot;&gt;&amp;nbsp;&amp;nbsp;&amp;nbsp;&amp;nbsp;&lt;/span&gt;&lt;/span&gt;SortClient.sort(this.musics)&lt;br&gt;}" style="text;strokeColor=none;fillColor=none;align=left;verticalAlign=top;spacingLeft=4;spacingRight=4;overflow=hidden;rotatable=0;points=[[0,0.5],[1,0.5]];portConstraint=eastwest;whiteSpace=wrap;html=1;" parent="qI4Zz2_DL1dysWs-RNPs-29" vertex="1">
          <mxGeometry y="78" width="187" height="53" as="geometry" />
        </mxCell>
        <mxCell id="eU_CXuEk2RFNgNVjs3vn-1" value="Open-closed principle (Принцип открытости/закрытости)" style="text;html=1;align=center;verticalAlign=middle;whiteSpace=wrap;rounded=0;strokeColor=default;fontStyle=1" vertex="1" parent="1">
          <mxGeometry x="330" y="-177" width="497" height="30" as="geometry" />
        </mxCell>
      </root>
    </mxGraphModel>
  </diagram>
  <diagram id="dN0mgAoESQHCbSgAZeRG" name="L">
    <mxGraphModel dx="-405" dy="659" grid="0" gridSize="10" guides="1" tooltips="1" connect="1" arrows="1" fold="1" page="0" pageScale="1" pageWidth="827" pageHeight="1169" math="0" shadow="0">
      <root>
        <mxCell id="0" />
        <mxCell id="1" parent="0" />
        <mxCell id="odwTcFo7YuIxdBL5NR9O-1" value="Person" style="swimlane;fontStyle=0;childLayout=stackLayout;horizontal=1;startSize=26;fillColor=none;horizontalStack=0;resizeParent=1;resizeParentMax=0;resizeLast=0;collapsible=1;marginBottom=0;whiteSpace=wrap;html=1;" parent="1" vertex="1">
          <mxGeometry x="1754" y="235" width="173" height="78" as="geometry" />
        </mxCell>
        <mxCell id="odwTcFo7YuIxdBL5NR9O-2" value="+ eat()" style="text;strokeColor=none;fillColor=none;align=left;verticalAlign=top;spacingLeft=4;spacingRight=4;overflow=hidden;rotatable=0;points=[[0,0.5],[1,0.5]];portConstraint=eastwest;whiteSpace=wrap;html=1;" parent="odwTcFo7YuIxdBL5NR9O-1" vertex="1">
          <mxGeometry y="26" width="173" height="26" as="geometry" />
        </mxCell>
        <mxCell id="eifzPbelWd8QnSUoD2B4-1" value="+ think()" style="text;strokeColor=none;fillColor=none;align=left;verticalAlign=top;spacingLeft=4;spacingRight=4;overflow=hidden;rotatable=0;points=[[0,0.5],[1,0.5]];portConstraint=eastwest;whiteSpace=wrap;html=1;" parent="odwTcFo7YuIxdBL5NR9O-1" vertex="1">
          <mxGeometry y="52" width="173" height="26" as="geometry" />
        </mxCell>
        <mxCell id="eifzPbelWd8QnSUoD2B4-22" style="edgeStyle=orthogonalEdgeStyle;shape=connector;rounded=0;orthogonalLoop=1;jettySize=auto;html=1;entryX=0;entryY=0.5;entryDx=0;entryDy=0;labelBackgroundColor=default;strokeColor=default;align=center;verticalAlign=middle;fontFamily=Helvetica;fontSize=11;fontColor=default;endArrow=block;endFill=0;" parent="1" source="eifzPbelWd8QnSUoD2B4-2" target="eifzPbelWd8QnSUoD2B4-14" edge="1">
          <mxGeometry relative="1" as="geometry" />
        </mxCell>
        <mxCell id="eifzPbelWd8QnSUoD2B4-23" style="edgeStyle=orthogonalEdgeStyle;shape=connector;rounded=0;orthogonalLoop=1;jettySize=auto;html=1;entryX=0;entryY=0.5;entryDx=0;entryDy=0;labelBackgroundColor=default;strokeColor=default;align=center;verticalAlign=middle;fontFamily=Helvetica;fontSize=11;fontColor=default;endArrow=block;endFill=0;" parent="1" source="eifzPbelWd8QnSUoD2B4-2" target="eifzPbelWd8QnSUoD2B4-9" edge="1">
          <mxGeometry relative="1" as="geometry" />
        </mxCell>
        <mxCell id="eifzPbelWd8QnSUoD2B4-2" value="Developer" style="swimlane;fontStyle=0;childLayout=stackLayout;horizontal=1;startSize=26;fillColor=none;horizontalStack=0;resizeParent=1;resizeParentMax=0;resizeLast=0;collapsible=1;marginBottom=0;whiteSpace=wrap;html=1;" parent="1" vertex="1">
          <mxGeometry x="1999" y="235" width="173" height="104" as="geometry" />
        </mxCell>
        <mxCell id="eifzPbelWd8QnSUoD2B4-3" value="+ eat()" style="text;strokeColor=none;fillColor=none;align=left;verticalAlign=top;spacingLeft=4;spacingRight=4;overflow=hidden;rotatable=0;points=[[0,0.5],[1,0.5]];portConstraint=eastwest;whiteSpace=wrap;html=1;" parent="eifzPbelWd8QnSUoD2B4-2" vertex="1">
          <mxGeometry y="26" width="173" height="26" as="geometry" />
        </mxCell>
        <mxCell id="eifzPbelWd8QnSUoD2B4-4" value="+ think()" style="text;strokeColor=none;fillColor=none;align=left;verticalAlign=top;spacingLeft=4;spacingRight=4;overflow=hidden;rotatable=0;points=[[0,0.5],[1,0.5]];portConstraint=eastwest;whiteSpace=wrap;html=1;" parent="eifzPbelWd8QnSUoD2B4-2" vertex="1">
          <mxGeometry y="52" width="173" height="26" as="geometry" />
        </mxCell>
        <mxCell id="eifzPbelWd8QnSUoD2B4-5" value="+ writeCode()" style="text;strokeColor=none;fillColor=none;align=left;verticalAlign=top;spacingLeft=4;spacingRight=4;overflow=hidden;rotatable=0;points=[[0,0.5],[1,0.5]];portConstraint=eastwest;whiteSpace=wrap;html=1;" parent="eifzPbelWd8QnSUoD2B4-2" vertex="1">
          <mxGeometry y="78" width="173" height="26" as="geometry" />
        </mxCell>
        <mxCell id="eifzPbelWd8QnSUoD2B4-6" style="edgeStyle=orthogonalEdgeStyle;shape=connector;rounded=0;orthogonalLoop=1;jettySize=auto;html=1;entryX=0;entryY=0.5;entryDx=0;entryDy=0;labelBackgroundColor=default;strokeColor=default;align=center;verticalAlign=middle;fontFamily=Helvetica;fontSize=11;fontColor=default;endArrow=block;endFill=0;" parent="1" source="odwTcFo7YuIxdBL5NR9O-2" target="eifzPbelWd8QnSUoD2B4-3" edge="1">
          <mxGeometry relative="1" as="geometry" />
        </mxCell>
        <mxCell id="eifzPbelWd8QnSUoD2B4-7" value="Frontend" style="swimlane;fontStyle=0;childLayout=stackLayout;horizontal=1;startSize=26;fillColor=none;horizontalStack=0;resizeParent=1;resizeParentMax=0;resizeLast=0;collapsible=1;marginBottom=0;whiteSpace=wrap;html=1;" parent="1" vertex="1">
          <mxGeometry x="2257" y="161" width="173" height="130" as="geometry" />
        </mxCell>
        <mxCell id="eifzPbelWd8QnSUoD2B4-8" value="+ eat()" style="text;strokeColor=none;fillColor=none;align=left;verticalAlign=top;spacingLeft=4;spacingRight=4;overflow=hidden;rotatable=0;points=[[0,0.5],[1,0.5]];portConstraint=eastwest;whiteSpace=wrap;html=1;" parent="eifzPbelWd8QnSUoD2B4-7" vertex="1">
          <mxGeometry y="26" width="173" height="26" as="geometry" />
        </mxCell>
        <mxCell id="eifzPbelWd8QnSUoD2B4-9" value="+ think()" style="text;strokeColor=none;fillColor=none;align=left;verticalAlign=top;spacingLeft=4;spacingRight=4;overflow=hidden;rotatable=0;points=[[0,0.5],[1,0.5]];portConstraint=eastwest;whiteSpace=wrap;html=1;" parent="eifzPbelWd8QnSUoD2B4-7" vertex="1">
          <mxGeometry y="52" width="173" height="26" as="geometry" />
        </mxCell>
        <mxCell id="eifzPbelWd8QnSUoD2B4-10" value="+ writeCode()" style="text;strokeColor=none;fillColor=none;align=left;verticalAlign=top;spacingLeft=4;spacingRight=4;overflow=hidden;rotatable=0;points=[[0,0.5],[1,0.5]];portConstraint=eastwest;whiteSpace=wrap;html=1;" parent="eifzPbelWd8QnSUoD2B4-7" vertex="1">
          <mxGeometry y="78" width="173" height="26" as="geometry" />
        </mxCell>
        <mxCell id="eifzPbelWd8QnSUoD2B4-11" value="+ useBrowserDevTools()" style="text;strokeColor=none;fillColor=none;align=left;verticalAlign=top;spacingLeft=4;spacingRight=4;overflow=hidden;rotatable=0;points=[[0,0.5],[1,0.5]];portConstraint=eastwest;whiteSpace=wrap;html=1;" parent="eifzPbelWd8QnSUoD2B4-7" vertex="1">
          <mxGeometry y="104" width="173" height="26" as="geometry" />
        </mxCell>
        <mxCell id="eifzPbelWd8QnSUoD2B4-12" value="Backend" style="swimlane;fontStyle=0;childLayout=stackLayout;horizontal=1;startSize=26;fillColor=none;horizontalStack=0;resizeParent=1;resizeParentMax=0;resizeLast=0;collapsible=1;marginBottom=0;whiteSpace=wrap;html=1;" parent="1" vertex="1">
          <mxGeometry x="2257" y="305" width="173" height="130" as="geometry" />
        </mxCell>
        <mxCell id="eifzPbelWd8QnSUoD2B4-13" value="+ eat()" style="text;strokeColor=none;fillColor=none;align=left;verticalAlign=top;spacingLeft=4;spacingRight=4;overflow=hidden;rotatable=0;points=[[0,0.5],[1,0.5]];portConstraint=eastwest;whiteSpace=wrap;html=1;" parent="eifzPbelWd8QnSUoD2B4-12" vertex="1">
          <mxGeometry y="26" width="173" height="26" as="geometry" />
        </mxCell>
        <mxCell id="eifzPbelWd8QnSUoD2B4-14" value="+ think()" style="text;strokeColor=none;fillColor=none;align=left;verticalAlign=top;spacingLeft=4;spacingRight=4;overflow=hidden;rotatable=0;points=[[0,0.5],[1,0.5]];portConstraint=eastwest;whiteSpace=wrap;html=1;" parent="eifzPbelWd8QnSUoD2B4-12" vertex="1">
          <mxGeometry y="52" width="173" height="26" as="geometry" />
        </mxCell>
        <mxCell id="eifzPbelWd8QnSUoD2B4-15" value="+ writeCode()" style="text;strokeColor=none;fillColor=none;align=left;verticalAlign=top;spacingLeft=4;spacingRight=4;overflow=hidden;rotatable=0;points=[[0,0.5],[1,0.5]];portConstraint=eastwest;whiteSpace=wrap;html=1;" parent="eifzPbelWd8QnSUoD2B4-12" vertex="1">
          <mxGeometry y="78" width="173" height="26" as="geometry" />
        </mxCell>
        <mxCell id="eifzPbelWd8QnSUoD2B4-16" value="+ configureDatabase()" style="text;strokeColor=none;fillColor=none;align=left;verticalAlign=top;spacingLeft=4;spacingRight=4;overflow=hidden;rotatable=0;points=[[0,0.5],[1,0.5]];portConstraint=eastwest;whiteSpace=wrap;html=1;" parent="eifzPbelWd8QnSUoD2B4-12" vertex="1">
          <mxGeometry y="104" width="173" height="26" as="geometry" />
        </mxCell>
        <mxCell id="M2ycF3NSb_gtlar8iWQl-1" value="Liskov substitutio principle (Принцип подстановки Барбары Лисков)" style="text;whiteSpace=wrap;html=1;align=center;fontStyle=1;verticalAlign=middle;strokeColor=default;" vertex="1" parent="1">
          <mxGeometry x="1873" y="58" width="503" height="36" as="geometry" />
        </mxCell>
      </root>
    </mxGraphModel>
  </diagram>
  <diagram name="I" id="nuJi8V-gYJZm4jWzpB-P">
    <mxGraphModel dx="-405" dy="659" grid="0" gridSize="10" guides="1" tooltips="1" connect="1" arrows="1" fold="1" page="0" pageScale="1" pageWidth="827" pageHeight="1169" math="0" shadow="0">
      <root>
        <mxCell id="JNIe4_A7Wl6m9O_4LYE9-0" />
        <mxCell id="JNIe4_A7Wl6m9O_4LYE9-1" parent="JNIe4_A7Wl6m9O_4LYE9-0" />
        <mxCell id="JNIe4_A7Wl6m9O_4LYE9-12" value="&lt;i&gt;&lt;b&gt;Attacker&lt;/b&gt;&lt;/i&gt;" style="swimlane;fontStyle=0;childLayout=stackLayout;horizontal=1;startSize=26;fillColor=none;horizontalStack=0;resizeParent=1;resizeParentMax=0;resizeLast=0;collapsible=1;marginBottom=0;whiteSpace=wrap;html=1;" vertex="1" parent="JNIe4_A7Wl6m9O_4LYE9-1">
          <mxGeometry x="1877" y="161" width="173" height="52" as="geometry" />
        </mxCell>
        <mxCell id="JNIe4_A7Wl6m9O_4LYE9-13" value="+ attack()" style="text;strokeColor=none;fillColor=none;align=left;verticalAlign=top;spacingLeft=4;spacingRight=4;overflow=hidden;rotatable=0;points=[[0,0.5],[1,0.5]];portConstraint=eastwest;whiteSpace=wrap;html=1;" vertex="1" parent="JNIe4_A7Wl6m9O_4LYE9-12">
          <mxGeometry y="26" width="173" height="26" as="geometry" />
        </mxCell>
        <mxCell id="JNIe4_A7Wl6m9O_4LYE9-22" value="Interface segregation principle (Принцип разделения интерфейсов)" style="text;whiteSpace=wrap;html=1;align=center;fontStyle=1;verticalAlign=middle;strokeColor=default;" vertex="1" parent="JNIe4_A7Wl6m9O_4LYE9-1">
          <mxGeometry x="1873" y="58" width="503" height="36" as="geometry" />
        </mxCell>
        <mxCell id="88YfSn-nhZVvT5mC3ih9-0" value="&lt;b&gt;&lt;i&gt;Reloader&lt;/i&gt;&lt;/b&gt;" style="swimlane;fontStyle=0;childLayout=stackLayout;horizontal=1;startSize=26;fillColor=none;horizontalStack=0;resizeParent=1;resizeParentMax=0;resizeLast=0;collapsible=1;marginBottom=0;whiteSpace=wrap;html=1;" vertex="1" parent="JNIe4_A7Wl6m9O_4LYE9-1">
          <mxGeometry x="2001" y="503" width="173" height="52" as="geometry" />
        </mxCell>
        <mxCell id="88YfSn-nhZVvT5mC3ih9-1" value="+ reload()" style="text;strokeColor=none;fillColor=none;align=left;verticalAlign=top;spacingLeft=4;spacingRight=4;overflow=hidden;rotatable=0;points=[[0,0.5],[1,0.5]];portConstraint=eastwest;whiteSpace=wrap;html=1;" vertex="1" parent="88YfSn-nhZVvT5mC3ih9-0">
          <mxGeometry y="26" width="173" height="26" as="geometry" />
        </mxCell>
        <mxCell id="88YfSn-nhZVvT5mC3ih9-17" style="edgeStyle=orthogonalEdgeStyle;rounded=0;orthogonalLoop=1;jettySize=auto;html=1;entryX=0;entryY=0.25;entryDx=0;entryDy=0;dashed=1;dashPattern=8 8;" edge="1" parent="JNIe4_A7Wl6m9O_4LYE9-1" source="88YfSn-nhZVvT5mC3ih9-3" target="JNIe4_A7Wl6m9O_4LYE9-12">
          <mxGeometry relative="1" as="geometry" />
        </mxCell>
        <mxCell id="88YfSn-nhZVvT5mC3ih9-18" value="Implements" style="edgeLabel;html=1;align=center;verticalAlign=middle;resizable=0;points=[];" vertex="1" connectable="0" parent="88YfSn-nhZVvT5mC3ih9-17">
          <mxGeometry x="-0.1392" relative="1" as="geometry">
            <mxPoint as="offset" />
          </mxGeometry>
        </mxCell>
        <mxCell id="88YfSn-nhZVvT5mC3ih9-25" style="edgeStyle=orthogonalEdgeStyle;rounded=0;orthogonalLoop=1;jettySize=auto;html=1;entryX=0;entryY=0.25;entryDx=0;entryDy=0;dashed=1;dashPattern=8 8;" edge="1" parent="JNIe4_A7Wl6m9O_4LYE9-1" source="88YfSn-nhZVvT5mC3ih9-3" target="88YfSn-nhZVvT5mC3ih9-0">
          <mxGeometry relative="1" as="geometry" />
        </mxCell>
        <mxCell id="88YfSn-nhZVvT5mC3ih9-28" value="Implements" style="edgeLabel;html=1;align=center;verticalAlign=middle;resizable=0;points=[];" vertex="1" connectable="0" parent="88YfSn-nhZVvT5mC3ih9-25">
          <mxGeometry x="-0.4521" y="1" relative="1" as="geometry">
            <mxPoint as="offset" />
          </mxGeometry>
        </mxCell>
        <mxCell id="88YfSn-nhZVvT5mC3ih9-3" value="Pistolet" style="swimlane;fontStyle=0;childLayout=stackLayout;horizontal=1;startSize=26;fillColor=none;horizontalStack=0;resizeParent=1;resizeParentMax=0;resizeLast=0;collapsible=1;marginBottom=0;whiteSpace=wrap;html=1;" vertex="1" parent="JNIe4_A7Wl6m9O_4LYE9-1">
          <mxGeometry x="1877" y="324" width="173" height="78" as="geometry" />
        </mxCell>
        <mxCell id="88YfSn-nhZVvT5mC3ih9-4" value="+ attack()" style="text;strokeColor=none;fillColor=none;align=left;verticalAlign=top;spacingLeft=4;spacingRight=4;overflow=hidden;rotatable=0;points=[[0,0.5],[1,0.5]];portConstraint=eastwest;whiteSpace=wrap;html=1;" vertex="1" parent="88YfSn-nhZVvT5mC3ih9-3">
          <mxGeometry y="26" width="173" height="26" as="geometry" />
        </mxCell>
        <mxCell id="88YfSn-nhZVvT5mC3ih9-8" value="+ reload()" style="text;strokeColor=none;fillColor=none;align=left;verticalAlign=top;spacingLeft=4;spacingRight=4;overflow=hidden;rotatable=0;points=[[0,0.5],[1,0.5]];portConstraint=eastwest;whiteSpace=wrap;html=1;" vertex="1" parent="88YfSn-nhZVvT5mC3ih9-3">
          <mxGeometry y="52" width="173" height="26" as="geometry" />
        </mxCell>
        <mxCell id="88YfSn-nhZVvT5mC3ih9-19" style="edgeStyle=orthogonalEdgeStyle;rounded=0;orthogonalLoop=1;jettySize=auto;html=1;entryX=1;entryY=0.25;entryDx=0;entryDy=0;dashed=1;dashPattern=8 8;" edge="1" parent="JNIe4_A7Wl6m9O_4LYE9-1" source="88YfSn-nhZVvT5mC3ih9-9" target="JNIe4_A7Wl6m9O_4LYE9-12">
          <mxGeometry relative="1" as="geometry" />
        </mxCell>
        <mxCell id="88YfSn-nhZVvT5mC3ih9-20" value="Implements" style="edgeLabel;html=1;align=center;verticalAlign=middle;resizable=0;points=[];" vertex="1" connectable="0" parent="88YfSn-nhZVvT5mC3ih9-19">
          <mxGeometry x="-0.1724" y="3" relative="1" as="geometry">
            <mxPoint as="offset" />
          </mxGeometry>
        </mxCell>
        <mxCell id="88YfSn-nhZVvT5mC3ih9-26" style="edgeStyle=orthogonalEdgeStyle;rounded=0;orthogonalLoop=1;jettySize=auto;html=1;entryX=1;entryY=0.25;entryDx=0;entryDy=0;dashed=1;dashPattern=8 8;" edge="1" parent="JNIe4_A7Wl6m9O_4LYE9-1" source="88YfSn-nhZVvT5mC3ih9-9" target="88YfSn-nhZVvT5mC3ih9-0">
          <mxGeometry relative="1" as="geometry" />
        </mxCell>
        <mxCell id="88YfSn-nhZVvT5mC3ih9-27" value="Implements" style="edgeLabel;html=1;align=center;verticalAlign=middle;resizable=0;points=[];" vertex="1" connectable="0" parent="88YfSn-nhZVvT5mC3ih9-26">
          <mxGeometry x="-0.587" y="-3" relative="1" as="geometry">
            <mxPoint as="offset" />
          </mxGeometry>
        </mxCell>
        <mxCell id="88YfSn-nhZVvT5mC3ih9-9" value="RPG" style="swimlane;fontStyle=0;childLayout=stackLayout;horizontal=1;startSize=26;fillColor=none;horizontalStack=0;resizeParent=1;resizeParentMax=0;resizeLast=0;collapsible=1;marginBottom=0;whiteSpace=wrap;html=1;" vertex="1" parent="JNIe4_A7Wl6m9O_4LYE9-1">
          <mxGeometry x="2093" y="324" width="173" height="78" as="geometry" />
        </mxCell>
        <mxCell id="88YfSn-nhZVvT5mC3ih9-10" value="+ attack()" style="text;strokeColor=none;fillColor=none;align=left;verticalAlign=top;spacingLeft=4;spacingRight=4;overflow=hidden;rotatable=0;points=[[0,0.5],[1,0.5]];portConstraint=eastwest;whiteSpace=wrap;html=1;" vertex="1" parent="88YfSn-nhZVvT5mC3ih9-9">
          <mxGeometry y="26" width="173" height="26" as="geometry" />
        </mxCell>
        <mxCell id="88YfSn-nhZVvT5mC3ih9-11" value="+ reload()" style="text;strokeColor=none;fillColor=none;align=left;verticalAlign=top;spacingLeft=4;spacingRight=4;overflow=hidden;rotatable=0;points=[[0,0.5],[1,0.5]];portConstraint=eastwest;whiteSpace=wrap;html=1;" vertex="1" parent="88YfSn-nhZVvT5mC3ih9-9">
          <mxGeometry y="52" width="173" height="26" as="geometry" />
        </mxCell>
        <mxCell id="88YfSn-nhZVvT5mC3ih9-21" style="edgeStyle=orthogonalEdgeStyle;rounded=0;orthogonalLoop=1;jettySize=auto;html=1;entryX=1;entryY=0.25;entryDx=0;entryDy=0;dashed=1;dashPattern=8 8;" edge="1" parent="JNIe4_A7Wl6m9O_4LYE9-1" source="88YfSn-nhZVvT5mC3ih9-12" target="JNIe4_A7Wl6m9O_4LYE9-12">
          <mxGeometry relative="1" as="geometry">
            <Array as="points">
              <mxPoint x="2394" y="299" />
              <mxPoint x="2179" y="299" />
              <mxPoint x="2179" y="174" />
            </Array>
          </mxGeometry>
        </mxCell>
        <mxCell id="88YfSn-nhZVvT5mC3ih9-22" value="Implements" style="edgeLabel;html=1;align=center;verticalAlign=middle;resizable=0;points=[];" vertex="1" connectable="0" parent="88YfSn-nhZVvT5mC3ih9-21">
          <mxGeometry x="-0.4751" y="2" relative="1" as="geometry">
            <mxPoint as="offset" />
          </mxGeometry>
        </mxCell>
        <mxCell id="88YfSn-nhZVvT5mC3ih9-12" value="Knife" style="swimlane;fontStyle=0;childLayout=stackLayout;horizontal=1;startSize=26;fillColor=none;horizontalStack=0;resizeParent=1;resizeParentMax=0;resizeLast=0;collapsible=1;marginBottom=0;whiteSpace=wrap;html=1;" vertex="1" parent="JNIe4_A7Wl6m9O_4LYE9-1">
          <mxGeometry x="2307" y="322" width="173" height="52" as="geometry" />
        </mxCell>
        <mxCell id="88YfSn-nhZVvT5mC3ih9-13" value="+ attack()" style="text;strokeColor=none;fillColor=none;align=left;verticalAlign=top;spacingLeft=4;spacingRight=4;overflow=hidden;rotatable=0;points=[[0,0.5],[1,0.5]];portConstraint=eastwest;whiteSpace=wrap;html=1;" vertex="1" parent="88YfSn-nhZVvT5mC3ih9-12">
          <mxGeometry y="26" width="173" height="26" as="geometry" />
        </mxCell>
      </root>
    </mxGraphModel>
  </diagram>
  <diagram name="D" id="34QWSb5DfFeKdappp9fW">
    <mxGraphModel dx="-405" dy="1059" grid="0" gridSize="10" guides="1" tooltips="1" connect="1" arrows="1" fold="1" page="0" pageScale="1" pageWidth="827" pageHeight="1169" math="0" shadow="0">
      <root>
        <mxCell id="sDKpxct73lYrjayQM_4M-0" />
        <mxCell id="sDKpxct73lYrjayQM_4M-1" parent="sDKpxct73lYrjayQM_4M-0" />
        <mxCell id="sDKpxct73lYrjayQM_4M-4" value="Dependency inversion principle (Принцип инверсии зависимости)" style="text;whiteSpace=wrap;html=1;align=center;fontStyle=1;verticalAlign=middle;strokeColor=default;" vertex="1" parent="sDKpxct73lYrjayQM_4M-1">
          <mxGeometry x="1938" y="-180" width="503" height="36" as="geometry" />
        </mxCell>
        <mxCell id="sDKpxct73lYrjayQM_4M-11" value="LocaleStorage" style="swimlane;fontStyle=0;childLayout=stackLayout;horizontal=1;startSize=26;fillColor=none;horizontalStack=0;resizeParent=1;resizeParentMax=0;resizeLast=0;collapsible=1;marginBottom=0;whiteSpace=wrap;html=1;" vertex="1" parent="sDKpxct73lYrjayQM_4M-1">
          <mxGeometry x="1877" y="519" width="173" height="78" as="geometry" />
        </mxCell>
        <mxCell id="sDKpxct73lYrjayQM_4M-12" value="+ setItem()" style="text;strokeColor=none;fillColor=none;align=left;verticalAlign=top;spacingLeft=4;spacingRight=4;overflow=hidden;rotatable=0;points=[[0,0.5],[1,0.5]];portConstraint=eastwest;whiteSpace=wrap;html=1;" vertex="1" parent="sDKpxct73lYrjayQM_4M-11">
          <mxGeometry y="26" width="173" height="26" as="geometry" />
        </mxCell>
        <mxCell id="sDKpxct73lYrjayQM_4M-13" value="+ getItem()" style="text;strokeColor=none;fillColor=none;align=left;verticalAlign=top;spacingLeft=4;spacingRight=4;overflow=hidden;rotatable=0;points=[[0,0.5],[1,0.5]];portConstraint=eastwest;whiteSpace=wrap;html=1;" vertex="1" parent="sDKpxct73lYrjayQM_4M-11">
          <mxGeometry y="52" width="173" height="26" as="geometry" />
        </mxCell>
        <mxCell id="4KZL1yMbk1H74rUak5Rz-0" value="Dictionary" style="swimlane;fontStyle=0;childLayout=stackLayout;horizontal=1;startSize=26;fillColor=none;horizontalStack=0;resizeParent=1;resizeParentMax=0;resizeLast=0;collapsible=1;marginBottom=0;whiteSpace=wrap;html=1;" vertex="1" parent="sDKpxct73lYrjayQM_4M-1">
          <mxGeometry x="2088" y="519" width="173" height="78" as="geometry" />
        </mxCell>
        <mxCell id="4KZL1yMbk1H74rUak5Rz-1" value="+ set()" style="text;strokeColor=none;fillColor=none;align=left;verticalAlign=top;spacingLeft=4;spacingRight=4;overflow=hidden;rotatable=0;points=[[0,0.5],[1,0.5]];portConstraint=eastwest;whiteSpace=wrap;html=1;" vertex="1" parent="4KZL1yMbk1H74rUak5Rz-0">
          <mxGeometry y="26" width="173" height="26" as="geometry" />
        </mxCell>
        <mxCell id="4KZL1yMbk1H74rUak5Rz-2" value="+ get()" style="text;strokeColor=none;fillColor=none;align=left;verticalAlign=top;spacingLeft=4;spacingRight=4;overflow=hidden;rotatable=0;points=[[0,0.5],[1,0.5]];portConstraint=eastwest;whiteSpace=wrap;html=1;" vertex="1" parent="4KZL1yMbk1H74rUak5Rz-0">
          <mxGeometry y="52" width="173" height="26" as="geometry" />
        </mxCell>
        <mxCell id="4KZL1yMbk1H74rUak5Rz-3" value="Postgres" style="swimlane;fontStyle=0;childLayout=stackLayout;horizontal=1;startSize=26;fillColor=none;horizontalStack=0;resizeParent=1;resizeParentMax=0;resizeLast=0;collapsible=1;marginBottom=0;whiteSpace=wrap;html=1;" vertex="1" parent="sDKpxct73lYrjayQM_4M-1">
          <mxGeometry x="2294" y="519" width="173" height="78" as="geometry" />
        </mxCell>
        <mxCell id="4KZL1yMbk1H74rUak5Rz-4" value="+ SELECT()" style="text;strokeColor=none;fillColor=none;align=left;verticalAlign=top;spacingLeft=4;spacingRight=4;overflow=hidden;rotatable=0;points=[[0,0.5],[1,0.5]];portConstraint=eastwest;whiteSpace=wrap;html=1;" vertex="1" parent="4KZL1yMbk1H74rUak5Rz-3">
          <mxGeometry y="26" width="173" height="26" as="geometry" />
        </mxCell>
        <mxCell id="4KZL1yMbk1H74rUak5Rz-5" value="+ INSERT()" style="text;strokeColor=none;fillColor=none;align=left;verticalAlign=top;spacingLeft=4;spacingRight=4;overflow=hidden;rotatable=0;points=[[0,0.5],[1,0.5]];portConstraint=eastwest;whiteSpace=wrap;html=1;" vertex="1" parent="4KZL1yMbk1H74rUak5Rz-3">
          <mxGeometry y="52" width="173" height="26" as="geometry" />
        </mxCell>
        <mxCell id="4KZL1yMbk1H74rUak5Rz-14" style="edgeStyle=orthogonalEdgeStyle;rounded=0;orthogonalLoop=1;jettySize=auto;html=1;entryX=0.5;entryY=0;entryDx=0;entryDy=0;" edge="1" parent="sDKpxct73lYrjayQM_4M-1" source="4KZL1yMbk1H74rUak5Rz-6" target="sDKpxct73lYrjayQM_4M-11">
          <mxGeometry relative="1" as="geometry" />
        </mxCell>
        <mxCell id="4KZL1yMbk1H74rUak5Rz-49" style="edgeStyle=orthogonalEdgeStyle;rounded=0;orthogonalLoop=1;jettySize=auto;html=1;entryX=0;entryY=0.5;entryDx=0;entryDy=0;dashed=1;dashPattern=8 8;" edge="1" parent="sDKpxct73lYrjayQM_4M-1" source="4KZL1yMbk1H74rUak5Rz-6" target="4KZL1yMbk1H74rUak5Rz-44">
          <mxGeometry relative="1" as="geometry" />
        </mxCell>
        <mxCell id="4KZL1yMbk1H74rUak5Rz-52" value="Implements" style="edgeLabel;html=1;align=center;verticalAlign=middle;resizable=0;points=[];" vertex="1" connectable="0" parent="4KZL1yMbk1H74rUak5Rz-49">
          <mxGeometry x="-0.1985" y="1" relative="1" as="geometry">
            <mxPoint as="offset" />
          </mxGeometry>
        </mxCell>
        <mxCell id="4KZL1yMbk1H74rUak5Rz-6" value="PostLocalStorage" style="swimlane;fontStyle=0;childLayout=stackLayout;horizontal=1;startSize=26;fillColor=none;horizontalStack=0;resizeParent=1;resizeParentMax=0;resizeLast=0;collapsible=1;marginBottom=0;whiteSpace=wrap;html=1;" vertex="1" parent="sDKpxct73lYrjayQM_4M-1">
          <mxGeometry x="1877" y="343" width="173" height="104" as="geometry" />
        </mxCell>
        <mxCell id="4KZL1yMbk1H74rUak5Rz-7" value="+ getAll()" style="text;strokeColor=none;fillColor=none;align=left;verticalAlign=top;spacingLeft=4;spacingRight=4;overflow=hidden;rotatable=0;points=[[0,0.5],[1,0.5]];portConstraint=eastwest;whiteSpace=wrap;html=1;" vertex="1" parent="4KZL1yMbk1H74rUak5Rz-6">
          <mxGeometry y="26" width="173" height="26" as="geometry" />
        </mxCell>
        <mxCell id="4KZL1yMbk1H74rUak5Rz-8" value="+ getOne()" style="text;strokeColor=none;fillColor=none;align=left;verticalAlign=top;spacingLeft=4;spacingRight=4;overflow=hidden;rotatable=0;points=[[0,0.5],[1,0.5]];portConstraint=eastwest;whiteSpace=wrap;html=1;" vertex="1" parent="4KZL1yMbk1H74rUak5Rz-6">
          <mxGeometry y="52" width="173" height="26" as="geometry" />
        </mxCell>
        <mxCell id="4KZL1yMbk1H74rUak5Rz-9" value="+ add()" style="text;strokeColor=none;fillColor=none;align=left;verticalAlign=top;spacingLeft=4;spacingRight=4;overflow=hidden;rotatable=0;points=[[0,0.5],[1,0.5]];portConstraint=eastwest;whiteSpace=wrap;html=1;" vertex="1" parent="4KZL1yMbk1H74rUak5Rz-6">
          <mxGeometry y="78" width="173" height="26" as="geometry" />
        </mxCell>
        <mxCell id="4KZL1yMbk1H74rUak5Rz-32" style="edgeStyle=orthogonalEdgeStyle;rounded=0;orthogonalLoop=1;jettySize=auto;html=1;entryX=0.5;entryY=0;entryDx=0;entryDy=0;" edge="1" parent="sDKpxct73lYrjayQM_4M-1" source="4KZL1yMbk1H74rUak5Rz-20" target="4KZL1yMbk1H74rUak5Rz-0">
          <mxGeometry relative="1" as="geometry" />
        </mxCell>
        <mxCell id="4KZL1yMbk1H74rUak5Rz-20" value="PostCacheDictionary" style="swimlane;fontStyle=0;childLayout=stackLayout;horizontal=1;startSize=26;fillColor=none;horizontalStack=0;resizeParent=1;resizeParentMax=0;resizeLast=0;collapsible=1;marginBottom=0;whiteSpace=wrap;html=1;" vertex="1" parent="sDKpxct73lYrjayQM_4M-1">
          <mxGeometry x="2088" y="343" width="173" height="104" as="geometry" />
        </mxCell>
        <mxCell id="4KZL1yMbk1H74rUak5Rz-21" value="+ getAll()" style="text;strokeColor=none;fillColor=none;align=left;verticalAlign=top;spacingLeft=4;spacingRight=4;overflow=hidden;rotatable=0;points=[[0,0.5],[1,0.5]];portConstraint=eastwest;whiteSpace=wrap;html=1;" vertex="1" parent="4KZL1yMbk1H74rUak5Rz-20">
          <mxGeometry y="26" width="173" height="26" as="geometry" />
        </mxCell>
        <mxCell id="4KZL1yMbk1H74rUak5Rz-22" value="+ getOne()" style="text;strokeColor=none;fillColor=none;align=left;verticalAlign=top;spacingLeft=4;spacingRight=4;overflow=hidden;rotatable=0;points=[[0,0.5],[1,0.5]];portConstraint=eastwest;whiteSpace=wrap;html=1;" vertex="1" parent="4KZL1yMbk1H74rUak5Rz-20">
          <mxGeometry y="52" width="173" height="26" as="geometry" />
        </mxCell>
        <mxCell id="4KZL1yMbk1H74rUak5Rz-23" value="+ add()" style="text;strokeColor=none;fillColor=none;align=left;verticalAlign=top;spacingLeft=4;spacingRight=4;overflow=hidden;rotatable=0;points=[[0,0.5],[1,0.5]];portConstraint=eastwest;whiteSpace=wrap;html=1;" vertex="1" parent="4KZL1yMbk1H74rUak5Rz-20">
          <mxGeometry y="78" width="173" height="26" as="geometry" />
        </mxCell>
        <mxCell id="4KZL1yMbk1H74rUak5Rz-33" style="edgeStyle=orthogonalEdgeStyle;rounded=0;orthogonalLoop=1;jettySize=auto;html=1;entryX=0.5;entryY=0;entryDx=0;entryDy=0;" edge="1" parent="sDKpxct73lYrjayQM_4M-1" source="4KZL1yMbk1H74rUak5Rz-28" target="4KZL1yMbk1H74rUak5Rz-3">
          <mxGeometry relative="1" as="geometry" />
        </mxCell>
        <mxCell id="4KZL1yMbk1H74rUak5Rz-50" style="edgeStyle=orthogonalEdgeStyle;rounded=0;orthogonalLoop=1;jettySize=auto;html=1;entryX=1;entryY=0.5;entryDx=0;entryDy=0;dashed=1;dashPattern=8 8;" edge="1" parent="sDKpxct73lYrjayQM_4M-1" source="4KZL1yMbk1H74rUak5Rz-28" target="4KZL1yMbk1H74rUak5Rz-44">
          <mxGeometry relative="1" as="geometry" />
        </mxCell>
        <mxCell id="4KZL1yMbk1H74rUak5Rz-51" value="Implements" style="edgeLabel;html=1;align=center;verticalAlign=middle;resizable=0;points=[];" vertex="1" connectable="0" parent="4KZL1yMbk1H74rUak5Rz-50">
          <mxGeometry x="-0.1869" y="-1" relative="1" as="geometry">
            <mxPoint as="offset" />
          </mxGeometry>
        </mxCell>
        <mxCell id="4KZL1yMbk1H74rUak5Rz-28" value="PostDBRepository" style="swimlane;fontStyle=0;childLayout=stackLayout;horizontal=1;startSize=26;fillColor=none;horizontalStack=0;resizeParent=1;resizeParentMax=0;resizeLast=0;collapsible=1;marginBottom=0;whiteSpace=wrap;html=1;" vertex="1" parent="sDKpxct73lYrjayQM_4M-1">
          <mxGeometry x="2294" y="343" width="173" height="104" as="geometry" />
        </mxCell>
        <mxCell id="4KZL1yMbk1H74rUak5Rz-29" value="+ getAll()" style="text;strokeColor=none;fillColor=none;align=left;verticalAlign=top;spacingLeft=4;spacingRight=4;overflow=hidden;rotatable=0;points=[[0,0.5],[1,0.5]];portConstraint=eastwest;whiteSpace=wrap;html=1;" vertex="1" parent="4KZL1yMbk1H74rUak5Rz-28">
          <mxGeometry y="26" width="173" height="26" as="geometry" />
        </mxCell>
        <mxCell id="4KZL1yMbk1H74rUak5Rz-30" value="+ getOne()" style="text;strokeColor=none;fillColor=none;align=left;verticalAlign=top;spacingLeft=4;spacingRight=4;overflow=hidden;rotatable=0;points=[[0,0.5],[1,0.5]];portConstraint=eastwest;whiteSpace=wrap;html=1;" vertex="1" parent="4KZL1yMbk1H74rUak5Rz-28">
          <mxGeometry y="52" width="173" height="26" as="geometry" />
        </mxCell>
        <mxCell id="4KZL1yMbk1H74rUak5Rz-31" value="+ add()" style="text;strokeColor=none;fillColor=none;align=left;verticalAlign=top;spacingLeft=4;spacingRight=4;overflow=hidden;rotatable=0;points=[[0,0.5],[1,0.5]];portConstraint=eastwest;whiteSpace=wrap;html=1;" vertex="1" parent="4KZL1yMbk1H74rUak5Rz-28">
          <mxGeometry y="78" width="173" height="26" as="geometry" />
        </mxCell>
        <mxCell id="4KZL1yMbk1H74rUak5Rz-39" style="edgeStyle=orthogonalEdgeStyle;rounded=0;orthogonalLoop=1;jettySize=auto;html=1;entryX=0.5;entryY=0;entryDx=0;entryDy=0;exitX=0.499;exitY=0.968;exitDx=0;exitDy=0;exitPerimeter=0;" edge="1" parent="sDKpxct73lYrjayQM_4M-1" source="4KZL1yMbk1H74rUak5Rz-37" target="4KZL1yMbk1H74rUak5Rz-6">
          <mxGeometry relative="1" as="geometry" />
        </mxCell>
        <mxCell id="4KZL1yMbk1H74rUak5Rz-40" style="edgeStyle=orthogonalEdgeStyle;rounded=0;orthogonalLoop=1;jettySize=auto;html=1;entryX=0.5;entryY=0;entryDx=0;entryDy=0;" edge="1" parent="sDKpxct73lYrjayQM_4M-1" source="4KZL1yMbk1H74rUak5Rz-34" target="4KZL1yMbk1H74rUak5Rz-20">
          <mxGeometry relative="1" as="geometry" />
        </mxCell>
        <mxCell id="4KZL1yMbk1H74rUak5Rz-41" style="edgeStyle=orthogonalEdgeStyle;rounded=0;orthogonalLoop=1;jettySize=auto;html=1;entryX=0.5;entryY=0;entryDx=0;entryDy=0;" edge="1" parent="sDKpxct73lYrjayQM_4M-1" source="4KZL1yMbk1H74rUak5Rz-34" target="4KZL1yMbk1H74rUak5Rz-28">
          <mxGeometry relative="1" as="geometry" />
        </mxCell>
        <mxCell id="4KZL1yMbk1H74rUak5Rz-34" value="Storage" style="swimlane;fontStyle=0;childLayout=stackLayout;horizontal=1;startSize=26;fillColor=none;horizontalStack=0;resizeParent=1;resizeParentMax=0;resizeLast=0;collapsible=1;marginBottom=0;whiteSpace=wrap;html=1;" vertex="1" parent="sDKpxct73lYrjayQM_4M-1">
          <mxGeometry x="2055" y="99" width="239" height="130" as="geometry" />
        </mxCell>
        <mxCell id="4KZL1yMbk1H74rUak5Rz-35" value="+ constructor(repo: Repository)" style="text;strokeColor=none;fillColor=none;align=left;verticalAlign=top;spacingLeft=4;spacingRight=4;overflow=hidden;rotatable=0;points=[[0,0.5],[1,0.5]];portConstraint=eastwest;whiteSpace=wrap;html=1;" vertex="1" parent="4KZL1yMbk1H74rUak5Rz-34">
          <mxGeometry y="26" width="239" height="26" as="geometry" />
        </mxCell>
        <mxCell id="4KZL1yMbk1H74rUak5Rz-38" value="+ getAll()" style="text;strokeColor=none;fillColor=none;align=left;verticalAlign=top;spacingLeft=4;spacingRight=4;overflow=hidden;rotatable=0;points=[[0,0.5],[1,0.5]];portConstraint=eastwest;whiteSpace=wrap;html=1;" vertex="1" parent="4KZL1yMbk1H74rUak5Rz-34">
          <mxGeometry y="52" width="239" height="26" as="geometry" />
        </mxCell>
        <mxCell id="4KZL1yMbk1H74rUak5Rz-36" value="+ getOne()" style="text;strokeColor=none;fillColor=none;align=left;verticalAlign=top;spacingLeft=4;spacingRight=4;overflow=hidden;rotatable=0;points=[[0,0.5],[1,0.5]];portConstraint=eastwest;whiteSpace=wrap;html=1;" vertex="1" parent="4KZL1yMbk1H74rUak5Rz-34">
          <mxGeometry y="78" width="239" height="26" as="geometry" />
        </mxCell>
        <mxCell id="4KZL1yMbk1H74rUak5Rz-37" value="+ add()" style="text;strokeColor=none;fillColor=none;align=left;verticalAlign=top;spacingLeft=4;spacingRight=4;overflow=hidden;rotatable=0;points=[[0,0.5],[1,0.5]];portConstraint=eastwest;whiteSpace=wrap;html=1;" vertex="1" parent="4KZL1yMbk1H74rUak5Rz-34">
          <mxGeometry y="104" width="239" height="26" as="geometry" />
        </mxCell>
        <mxCell id="4KZL1yMbk1H74rUak5Rz-42" value="&lt;b&gt;&lt;i&gt;Repository&lt;/i&gt;&lt;/b&gt;" style="swimlane;fontStyle=0;childLayout=stackLayout;horizontal=1;startSize=26;fillColor=none;horizontalStack=0;resizeParent=1;resizeParentMax=0;resizeLast=0;collapsible=1;marginBottom=0;whiteSpace=wrap;html=1;" vertex="1" parent="sDKpxct73lYrjayQM_4M-1">
          <mxGeometry x="2056" y="-93" width="239" height="104" as="geometry" />
        </mxCell>
        <mxCell id="4KZL1yMbk1H74rUak5Rz-44" value="+ getAll()" style="text;strokeColor=none;fillColor=none;align=left;verticalAlign=top;spacingLeft=4;spacingRight=4;overflow=hidden;rotatable=0;points=[[0,0.5],[1,0.5]];portConstraint=eastwest;whiteSpace=wrap;html=1;" vertex="1" parent="4KZL1yMbk1H74rUak5Rz-42">
          <mxGeometry y="26" width="239" height="26" as="geometry" />
        </mxCell>
        <mxCell id="4KZL1yMbk1H74rUak5Rz-45" value="+ getOne()" style="text;strokeColor=none;fillColor=none;align=left;verticalAlign=top;spacingLeft=4;spacingRight=4;overflow=hidden;rotatable=0;points=[[0,0.5],[1,0.5]];portConstraint=eastwest;whiteSpace=wrap;html=1;" vertex="1" parent="4KZL1yMbk1H74rUak5Rz-42">
          <mxGeometry y="52" width="239" height="26" as="geometry" />
        </mxCell>
        <mxCell id="4KZL1yMbk1H74rUak5Rz-46" value="+ add()" style="text;strokeColor=none;fillColor=none;align=left;verticalAlign=top;spacingLeft=4;spacingRight=4;overflow=hidden;rotatable=0;points=[[0,0.5],[1,0.5]];portConstraint=eastwest;whiteSpace=wrap;html=1;" vertex="1" parent="4KZL1yMbk1H74rUak5Rz-42">
          <mxGeometry y="78" width="239" height="26" as="geometry" />
        </mxCell>
        <mxCell id="4KZL1yMbk1H74rUak5Rz-47" style="edgeStyle=orthogonalEdgeStyle;rounded=0;orthogonalLoop=1;jettySize=auto;html=1;entryX=0.492;entryY=1;entryDx=0;entryDy=0;entryPerimeter=0;dashed=1;dashPattern=8 8;" edge="1" parent="sDKpxct73lYrjayQM_4M-1" source="4KZL1yMbk1H74rUak5Rz-34" target="4KZL1yMbk1H74rUak5Rz-46">
          <mxGeometry relative="1" as="geometry" />
        </mxCell>
        <mxCell id="4KZL1yMbk1H74rUak5Rz-48" value="Implements" style="edgeLabel;html=1;align=center;verticalAlign=middle;resizable=0;points=[];" vertex="1" connectable="0" parent="4KZL1yMbk1H74rUak5Rz-47">
          <mxGeometry x="-0.2725" y="-1" relative="1" as="geometry">
            <mxPoint as="offset" />
          </mxGeometry>
        </mxCell>
      </root>
    </mxGraphModel>
  </diagram>
</mxfile>
